<svg width="93" height="60" viewBox="0 0 93 60" fill="none" xmlns="http://www.w3.org/2000/svg">
<path fill-rule="evenodd" clip-rule="evenodd" d="M15 7.5V0H12V7.5H0V10.5H9.87868L2.37868 18L4.5 20.1213L12 12.6213V18H15V10.5H27V7.5H15ZM24.6213 18L18 11.3787L15.8787 13.5L22.5 20.1213L24.6213 18ZM14.9393 21H9V24H14.9393C15.5419 24 15.7618 24.7937 15.245 25.1037C14.1624 25.7533 13.5 26.9232 13.5 28.1857V28.5H0V31.5H13.5V33C13.5 34.6569 12.1569 36 10.5 36H9V39H10.5C13.8137 39 16.5 36.3137 16.5 33V31.5H27V28.5H16.5V28.1857C16.5 27.977 16.6095 27.7836 16.7885 27.6762C19.9143 25.8007 18.5846 21 14.9393 21ZM45 0H33V3H45C48.3137 3 51 5.68629 51 9V10.5C51 14.6421 54.3579 18 58.5 18H60V15H58.5C56.0147 15 54 12.9853 54 10.5V9C54 8.68745 53.9841 8.37863 53.953 8.07429L57.6213 11.7426L59.7426 9.62132L56.7426 6.62132L59.7426 3.62132L57.6213 1.5L54.6213 4.5L54 5.12132L53.3886 5.73273C52.0808 2.37747 48.818 0 45 0ZM38.1213 16.5H33V19.5H38.1213V27.7721C38.1213 29.7612 37.3311 31.6689 35.9246 33.0754L33 36L35.1213 38.1213L38.0459 35.1967C40.0151 33.2276 41.1213 30.5568 41.1213 27.7721V19.5H43.5C43.8824 19.5 44.258 19.5286 44.625 19.5838V39H47.625V20.7353C49.6583 22.0768 51 24.3817 51 27V30C51 34.1421 54.3579 37.5 58.5 37.5H60V34.5H58.5C56.0147 34.5 54 32.4853 54 30V27.6213L57.6213 31.2426L59.7426 29.1213L56.7426 26.1213L59.7426 23.1213L57.6213 21L54.6213 24L54 24.6213L53.7782 24.8431C53.0714 21.4576 50.7341 18.6708 47.625 17.3413V7.5H44.625V16.5596C44.2554 16.5202 43.8801 16.5 43.5 16.5H41.1213V9.00004L42.6214 7.5L40.5 5.37868L33.8787 12L36 14.1213L38.1213 12V16.5ZM66 0H78C81.818 0 85.0808 2.37747 86.3886 5.73273L87 5.12132L87.6213 4.5L90.6213 1.5L92.7426 3.62132L89.7426 6.62132L92.7426 9.62132L90.6213 11.7426L86.953 8.07429C86.9841 8.37863 87 8.68745 87 9V10.5C87 12.9853 89.0147 15 91.5 15H93V18H91.5C87.3579 18 84 14.6421 84 10.5V9C84 5.68629 81.3137 3 78 3H66V0ZM66 16.5H71.1213V12L69 14.1213L66.8787 12L73.5 5.37868L75.6214 7.5L74.1213 9.00004V16.5H76.5C76.8801 16.5 77.2554 16.5202 77.625 16.5596V7.5H80.625V17.3413C83.7341 18.6708 86.0714 21.4576 86.7782 24.8431L87 24.6213L87.6213 24L90.6213 21L92.7426 23.1213L89.7426 26.1213L92.7426 29.1213L90.6213 31.2426L87 27.6213V30C87 32.4853 89.0147 34.5 91.5 34.5H93V37.5H91.5C87.3579 37.5 84 34.1421 84 30V27C84 24.3817 82.6583 22.0768 80.625 20.7353V39H77.625V19.5838C77.258 19.5286 76.8824 19.5 76.5 19.5H74.1213V27.7721C74.1213 30.5568 73.0151 33.2276 71.0459 35.1967L68.1213 38.1213L66 36L68.9246 33.0754C70.3311 31.6689 71.1213 29.7612 71.1213 27.7721V19.5H66V16.5ZM0.75 50.3571C0.75 48.2269 2.4769 46.5 4.60714 46.5H9.42857V48.4286H4.60714C3.54202 48.4286 2.67857 49.292 2.67857 50.3571V60H0.75V50.3571ZM4.60713 52.2857H9.42856V54.2143H4.60713V52.2857ZM21.9643 52.2857H13.2857V54.2143H21.9643V52.2857ZM13.2857 58.0714H21.9643V60H13.2857V58.0714ZM21.9643 46.5H13.2857V48.4286H21.9643V46.5ZM27.75 46.5V60H25.8214V46.5H27.75ZM39.75 50.3571C39.75 48.2269 41.4769 46.5 43.6071 46.5H48.4286V48.4286H43.6071C42.542 48.4286 41.6786 49.292 41.6786 50.3571V60H39.75V50.3571ZM43.6071 52.2857H48.4286V54.2143H43.6071V52.2857ZM60.9643 52.2857H52.2857V54.2143H60.9643V52.2857ZM52.2857 58.0714H60.9643V60H52.2857V58.0714ZM60.9643 46.5H52.2857V48.4286H60.9643V46.5ZM66.75 46.5V60H64.8214V46.5H66.75ZM80.6786 56.1429V46.5H78.75V56.1429C78.75 58.2731 80.4769 60 82.6071 60H86.4643V58.0714H82.6071C81.542 58.0714 80.6786 57.208 80.6786 56.1429ZM92.2499 60V46.5H90.3214V60H92.2499Z" fill="#8BECFF"/>
</svg>
