<svg width="28" height="28" viewBox="0 0 28 28" fill="none" xmlns="http://www.w3.org/2000/svg">
<path d="M6.67752 9.30649C6.30868 8.96413 6.12524 8.54035 6.12524 8.03613C6.12524 7.53191 6.30966 7.08949 6.67752 6.74615C7.04637 6.40379 7.52116 6.23212 8.10288 6.23212C8.6846 6.23212 9.14076 6.40379 9.50863 6.74615C9.87747 7.08851 10.0609 7.51916 10.0609 8.03613C10.0609 8.55311 9.87649 8.96413 9.50863 9.30649C9.13978 9.64885 8.67185 9.82052 8.10288 9.82052C7.53392 9.82052 7.04637 9.64885 6.67752 9.30649ZM9.75093 11.2704V21.7669H6.43424V11.2704H9.75093Z" fill="#8BECFF"/>
<path d="M20.7918 12.3073C21.5148 13.0921 21.8758 14.1692 21.8758 15.5406V21.5814H18.7259V15.9663C18.7259 15.2748 18.5464 14.7372 18.1883 14.3546C17.8302 13.972 17.3476 13.7797 16.7433 13.7797C16.139 13.7797 15.6564 13.971 15.2983 14.3546C14.9403 14.7372 14.7608 15.2748 14.7608 15.9663V21.5814H11.5922V11.241H14.7608V12.6124C15.0815 12.1552 15.5142 11.7943 16.0576 11.5284C16.6011 11.2626 17.2122 11.1301 17.892 11.1301C19.1026 11.1301 20.0698 11.5225 20.7918 12.3063V12.3073Z" fill="#8BECFF"/>
</svg>
